<svg width="36" height="44" viewBox="0 0 36 44" fill="none" xmlns="http://www.w3.org/2000/svg">
<path fill-rule="evenodd" clip-rule="evenodd" d="M8.10425 18.8333C8.10425 16.2088 9.14684 13.6918 11.0027 11.8359C12.8585 9.98009 15.3755 8.9375 18.0001 8.9375C20.6246 8.9375 23.1417 9.98009 24.9975 11.8359C26.8533 13.6918 27.8959 16.2088 27.8959 18.8333C27.8959 21.4579 26.8533 23.9749 24.9975 25.8307C23.1417 27.6866 20.6246 28.7292 18.0001 28.7292C15.3755 28.7292 12.8585 27.6866 11.0027 25.8307C9.14684 23.9749 8.10425 21.4579 8.10425 18.8333ZM18.0001 12.0625C16.2043 12.0625 14.4822 12.7759 13.2124 14.0456C11.9426 15.3154 11.2292 17.0376 11.2292 18.8333C11.2292 20.6291 11.9426 22.3513 13.2124 23.621C14.4822 24.8908 16.2043 25.6042 18.0001 25.6042C19.7958 25.6042 21.518 24.8908 22.7878 23.621C24.0576 22.3513 24.7709 20.6291 24.7709 18.8333C24.7709 17.0376 24.0576 15.3154 22.7878 14.0456C21.518 12.7759 19.7958 12.0625 18.0001 12.0625Z" fill="#533D30"/>
<path fill-rule="evenodd" clip-rule="evenodd" d="M0.341742 16.4522C0.698775 12.1334 2.66635 8.1066 5.85403 5.17092C9.04172 2.23524 13.2165 0.605198 17.5501 0.604248H18.4501C22.7836 0.605198 26.9584 2.23524 30.1461 5.17092C33.3338 8.1066 35.3014 12.1334 35.6584 16.4522C36.0556 21.2633 34.5692 26.0406 31.5126 29.7772L21.5272 41.9876C21.0998 42.5102 20.5617 42.9312 19.9517 43.2204C19.3417 43.5096 18.6751 43.6595 18.0001 43.6595C17.325 43.6595 16.6584 43.5096 16.0484 43.2204C15.4384 42.9312 14.9003 42.5102 14.473 41.9876L4.48758 29.7772C1.43098 26.0406 -0.0554093 21.2633 0.341742 16.4522ZM17.5501 3.72925C14.0014 3.73075 10.5828 5.06601 7.97259 7.47018C5.36235 9.87435 3.75109 13.1718 3.45841 16.7084C3.12775 20.7124 4.36467 24.6883 6.90841 27.798L16.8938 40.0105C17.0281 40.1748 17.1971 40.3072 17.3888 40.3981C17.5805 40.489 17.79 40.5362 18.0022 40.5362C18.2143 40.5362 18.4238 40.489 18.6155 40.3981C18.8072 40.3072 18.9763 40.1748 19.1105 40.0105L29.0959 27.798C31.6382 24.6877 32.8736 20.7118 32.5417 16.7084C32.249 13.1714 30.6375 9.8737 28.0268 7.46948C25.4161 5.06526 21.9971 3.73022 18.448 3.72925H17.5501Z" fill="#533D30"/>
</svg>
