<svg width="37" height="37" viewBox="0 0 37 37" fill="none" xmlns="http://www.w3.org/2000/svg">
<path fill-rule="evenodd" clip-rule="evenodd" d="M5.16668 14.5333C8.89809 22.6546 15.5265 29.0906 23.7542 32.5813L23.7792 32.5917L25.3709 33.3C26.354 33.7384 27.458 33.8251 28.4976 33.5455C29.5371 33.2659 30.4487 32.637 31.0792 31.7646L33.7334 28.0917C33.8114 27.9835 33.8449 27.8495 33.8271 27.7174C33.8093 27.5852 33.7414 27.4649 33.6375 27.3813L29.0042 23.6417C28.9495 23.5976 28.8865 23.565 28.8189 23.5459C28.7513 23.5268 28.6805 23.5215 28.6108 23.5305C28.5411 23.5394 28.474 23.5624 28.4134 23.598C28.3529 23.6335 28.3001 23.681 28.2584 23.7375L26.4542 26.1708C26.2416 26.4579 25.9371 26.6635 25.5914 26.7533C25.2457 26.8432 24.8796 26.8119 24.5542 26.6646C18.3911 23.8699 13.453 18.9318 10.6583 12.7688C10.5111 12.4433 10.4797 12.0773 10.5696 11.7315C10.6594 11.3858 10.865 11.0813 11.1521 10.8688L13.5834 9.0625C13.6398 9.02075 13.6873 8.968 13.7229 8.90743C13.7585 8.84685 13.7814 8.77971 13.7904 8.71003C13.7993 8.64036 13.7941 8.56959 13.775 8.50199C13.7559 8.43439 13.7233 8.37135 13.6792 8.31667L9.94168 3.68334C9.85806 3.57944 9.73776 3.51159 9.60559 3.49376C9.47341 3.47593 9.33943 3.50948 9.23127 3.5875L5.53752 6.25417C4.65918 6.88773 4.02732 7.80587 3.74931 8.85257C3.47131 9.89927 3.56431 11.0099 4.01252 11.9958L5.16668 14.5333ZM22.5209 35.4521C13.5819 31.6556 6.3811 24.6605 2.3271 15.8354L2.32293 15.8313L1.16877 13.2896C0.421724 11.6467 0.266492 9.79593 0.729444 8.05161C1.1924 6.30728 2.24497 4.77703 3.70835 3.72084L7.4021 1.05417C8.15862 0.508172 9.09567 0.272973 10.0204 0.396989C10.9451 0.521005 11.787 0.994797 12.3729 1.72084L16.1125 6.35625C16.4211 6.7387 16.6492 7.17958 16.7831 7.65242C16.917 8.12525 16.9539 8.62028 16.8917 9.10774C16.8294 9.59521 16.6692 10.0651 16.4208 10.489C16.1723 10.913 15.8407 11.2824 15.4459 11.575L14.05 12.6083C16.4109 17.1834 20.1375 20.91 24.7125 23.2708L25.7479 21.875C26.0405 21.4805 26.4098 21.1491 26.8336 20.9009C27.2574 20.6526 27.727 20.4925 28.2142 20.4303C28.7015 20.368 29.1962 20.4048 29.6688 20.5385C30.1415 20.6722 30.5822 20.9001 30.9646 21.2083L35.6 24.9479C36.3266 25.5339 36.8008 26.3763 36.9248 27.3015C37.0489 28.2266 36.8133 29.1642 36.2667 29.9208L33.6125 33.5958C32.5619 35.0499 31.0429 36.098 29.3107 36.5643C27.5785 37.0305 25.7386 36.8865 24.1 36.1563L22.5209 35.4521Z" fill="#533D30"/>
<path fill-rule="evenodd" clip-rule="evenodd" d="M33.5626 2.39584C33.8542 2.68959 34.0209 3.08751 34.0209 3.50001V11.4792C34.0209 11.8936 33.8563 12.291 33.5633 12.584C33.2702 12.8771 32.8728 13.0417 32.4584 13.0417C32.044 13.0417 31.6466 12.8771 31.3536 12.584C31.0605 12.291 30.8959 11.8936 30.8959 11.4792V7.27084L24.3126 13.8542C24.1684 14.0033 23.9959 14.1223 23.8052 14.2041C23.6146 14.2859 23.4095 14.3289 23.202 14.3306C22.9946 14.3323 22.7888 14.2927 22.5969 14.214C22.4049 14.1354 22.2305 14.0193 22.0838 13.8725C21.9372 13.7257 21.8213 13.5512 21.7428 13.3591C21.6643 13.1671 21.6249 12.9613 21.6268 12.7538C21.6287 12.5464 21.6719 12.3414 21.7539 12.1508C21.8358 11.9602 21.9549 11.7878 22.1042 11.6438L28.6855 5.06042H24.4792C24.0648 5.06042 23.6674 4.8958 23.3744 4.60278C23.0814 4.30975 22.9167 3.91233 22.9167 3.49792C22.9167 3.08352 23.0814 2.6861 23.3744 2.39307C23.6674 2.10004 24.0648 1.93542 24.4792 1.93542H32.4542C32.8685 1.93579 33.2657 2.10065 33.5584 2.39376" fill="#533D30"/>
</svg>
